# xmcd CD database file
#
# Track frame offsets:
#	150
#	11457
#	23141
#	34753
#	46590
#	57872
#	70309
#	83116
#	93331
#	107106
#	116297
#	132037
#	142214
#	152491
#	161105
#	171910
#	184705
#	198706
#
# Disc length: 2839 seconds
#
# Revision: 0
# Processed by: cddbd v1.5.2PL0 Copyright (c) Steve Scherf et al.
# Submitted via: CDex 1.51
#
DISCID=eb0b1512
DTITLE=Various Artist - Forever Country
DYEAR=1900
DGENRE=Country
TTITLE0=Send Me The Pillow You Dream On - Hank Locklin
TTITLE1=I Walk The Line - Johnny Cash
TTITLE2=Walking After Midnight - Patsy Cline
TTITLE3=It's a Man's World - Diana Trask
TTITLE4=All For the Love of a Girl - Johnny Horton
TTITLE5=When Love is Gone - Bobby Bare
TTITLE6=I Fall to Pieces - Dottie West
TTITLE7=It Makes No Difference Now - Billie Jo Spears
TTITLE8=Rhinestone Cowboy (live) - Glenn Campbell
TTITLE9=Hello Walls - Faron Young
TTITLE10=The Cotton Patch - Jeanie C Riley
TTITLE11=Three Cigarettes in An Ashtray - Patsy Cline
TTITLE12=A-11 - Johnny Paycheck
TTITLE13=Love's Gonna Live Here Again - Waylon Jennings
TTITLE14=Someday Soon - Lynn Anderson
TTITLE15=Dallas - Billie Jo Spears
TTITLE16=The Unicorn - Bill Anderson
TTITLE17=For the Good Times - Bobby Bare
EXTD=
EXTT0=
EXTT1=
EXTT2=
EXTT3=
EXTT4=
EXTT5=
EXTT6=
EXTT7=
EXTT8=
EXTT9=
EXTT10=
EXTT11=
EXTT12=
EXTT13=
EXTT14=
EXTT15=
EXTT16=
EXTT17=
PLAYORDER=
